<svg xmlns="http://www.w3.org/2000/svg" viewBox="0 0 18 25" x="0px" y="0px"><metadata><?xpacket begin="&#65279;" id="W5M0MpCehiHzreSzNTczkc9d"?><x:xmpmeta xmlns:x="adobe:ns:meta/" x:xmptk="Adobe XMP Core 5.6-c138 79.159824, 2016/09/14-01:09:01        "/><?xpacket end="w"?></metadata><defs><style>
      .cls-1 {
        fill-rule: evenodd;
      }
    </style></defs><path class="cls-1" d="M133.111,526H122.73a2.7,2.7,0,0,0-2.73,2.679v14.633A2.709,2.709,0,0,0,122.73,546h12.54a2.709,2.709,0,0,0,2.73-2.687v-12.4ZM135,544H123a1.214,1.214,0,0,1-1-1V529a1.213,1.213,0,0,1,1-1h9v2a2.235,2.235,0,0,0,2,2h2v11A1.214,1.214,0,0,1,135,544Zm-11-13h6v1h-6v-1Zm0,3h10v1H124v-1Zm0,3h10v1H124v-1Zm0,3h10v1H124v-1Z" transform="translate(-120 -526)"/><text x="0" y="35" fill="#000000" font-size="5px" font-weight="bold" font-family="'Helvetica Neue', Helvetica, Arial-Unicode, Arial, Sans-serif">Created by Makarenko Andrey</text><text x="0" y="40" fill="#000000" font-size="5px" font-weight="bold" font-family="'Helvetica Neue', Helvetica, Arial-Unicode, Arial, Sans-serif">from the Noun Project</text></svg>