<svg xmlns="http://www.w3.org/2000/svg" xmlns:xlink="http://www.w3.org/1999/xlink" version="1.1" x="0px" y="0px" viewBox="0 0 100 125" enable-background="new 0 0 100 100" xml:space="preserve"><g><g><path d="M76.25,76.25V12.5c0-4.136-3.363-7.5-7.5-7.5H20.861c1.79,1.992,2.889,4.616,2.889,7.5v75.586    c0,3.813,3.102,6.914,6.914,6.914s6.914-3.102,6.914-6.914v-9.961c0-1.036,0.839-1.875,1.875-1.875H76.25z M33.125,20h33.75    c1.036,0,1.875,0.839,1.875,1.875c0,1.035-0.839,1.875-1.875,1.875h-33.75c-1.036,0-1.875-0.84-1.875-1.875    C31.25,20.839,32.089,20,33.125,20z M33.125,34.063h33.75c1.036,0,1.875,0.839,1.875,1.875c0,1.035-0.839,1.875-1.875,1.875    h-33.75c-1.036,0-1.875-0.84-1.875-1.875C31.25,34.901,32.089,34.063,33.125,34.063z M33.125,48.125h33.75    c1.036,0,1.875,0.839,1.875,1.875c0,1.034-0.839,1.875-1.875,1.875h-33.75c-1.036,0-1.875-0.841-1.875-1.875    C31.25,48.964,32.089,48.125,33.125,48.125z M33.125,65.938c-1.036,0-1.875-0.839-1.875-1.875s0.839-1.875,1.875-1.875H50    c1.036,0,1.875,0.839,1.875,1.875S51.036,65.938,50,65.938H33.125z M93.125,80H41.328v8.086c0,2.639-0.969,5.05-2.561,6.914H87.5    c4.137,0,7.5-3.363,7.5-7.5v-5.625C95,80.839,94.161,80,93.125,80z M12.5,5C8.365,5,5,8.364,5,12.5v5.625    C5,19.16,5.839,20,6.875,20H20v-7.5C20,8.364,16.635,5,12.5,5z"/></g></g><text x="0" y="115" fill="#000000" font-size="5px" font-weight="bold" font-family="'Helvetica Neue', Helvetica, Arial-Unicode, Arial, Sans-serif">Created by Jake Dunham</text><text x="0" y="120" fill="#000000" font-size="5px" font-weight="bold" font-family="'Helvetica Neue', Helvetica, Arial-Unicode, Arial, Sans-serif">from the Noun Project</text></svg>