<svg xmlns="http://www.w3.org/2000/svg" xmlns:xlink="http://www.w3.org/1999/xlink" version="1.1" x="0px" y="0px" viewBox="0 0 100 125" enable-background="new 0 0 100 100" xml:space="preserve"><polygon points="59.749,85.266 89.174,55.838 87.057,53.686 57.616,83.131 16.291,41.807 13.405,44.694 54.729,86.019 54.717,86.03   56.85,88.167 59.623,85.391 59.749,85.266 "/><polygon points="89.174,65.438 87.057,63.283 57.606,92.741 16.294,51.426 13.405,54.309 54.723,95.624 54.717,95.632 56.85,97.766   56.855,97.76 56.862,97.766 59.752,94.887 59.739,94.873 "/><rect x="28.321" y="9.638" transform="matrix(-0.7071 0.7071 -0.7071 -0.7071 116.5783 32.4471)" width="46.497" height="61.458"/><text x="0" y="115" fill="#000000" font-size="5px" font-weight="bold" font-family="'Helvetica Neue', Helvetica, Arial-Unicode, Arial, Sans-serif">Created by Andrew Was</text><text x="0" y="120" fill="#000000" font-size="5px" font-weight="bold" font-family="'Helvetica Neue', Helvetica, Arial-Unicode, Arial, Sans-serif">from the Noun Project</text></svg>