<svg xmlns="http://www.w3.org/2000/svg" data-name="Layer 1" viewBox="0 0 100 125" x="0px" y="0px"><title>Artboard 28</title><path d="M59.67,24a2.74,2.74,0,0,1,2.74-2.74h5.45a2.74,2.74,0,0,1,0,5.47H62.41A2.74,2.74,0,0,1,59.67,24ZM67.86,32H63.73a2.74,2.74,0,0,0,0,5.47h4.13a2.74,2.74,0,0,0,0-5.47ZM55.23,45.41A2.74,2.74,0,0,0,58,48.15h9.89a2.74,2.74,0,0,0,0-5.47H58A2.74,2.74,0,0,0,55.23,45.41ZM33.32,58.83H67.86a2.74,2.74,0,0,0,0-5.47H33.32a2.74,2.74,0,0,0,0,5.47Zm0,10.68H51.4a2.74,2.74,0,1,0,0-5.47H33.32a2.74,2.74,0,0,0,0,5.47Zm0,10.68H51.4a2.74,2.74,0,1,0,0-5.47H33.32a2.74,2.74,0,0,0,0,5.47ZM46.65,33.66l9.66,0a1.32,1.32,0,0,0,1.32-1.33,11,11,0,0,0-11-10.94,1.32,1.32,0,0,0-1.32,1.32l0,9.66A1.32,1.32,0,0,0,46.65,33.66ZM41.17,48.43A11.08,11.08,0,0,0,52.72,38a.66.66,0,0,0-.67-.69l-9.59,0a.8.8,0,0,1-.8-.8l0-9.59a.66.66,0,0,0-.69-.66,11.08,11.08,0,0,0,.23,22.12Zm52,25.64a7.34,7.34,0,0,1-4.94,9.12L70,88.6l-3.69,3.69a4.3,4.3,0,0,1-3,1.25H53.44L36.12,98.69A7.34,7.34,0,0,1,27,93.76l-.07-.22H23.32A7.36,7.36,0,0,1,16,86.19V56.66L6.82,25.93a7.34,7.34,0,0,1,4.94-9.11L16,15.56V15.2a7.36,7.36,0,0,1,7.35-7.35H41.86l22-6.55A7.34,7.34,0,0,1,73,6.24l.48,1.62h4.39a7.36,7.36,0,0,1,7.35,7.35V47.3ZM76.66,16.4H24.52V85H59.06V71.67a4.28,4.28,0,0,1,4.27-4.27H76.66Z"/><text x="0" y="115" fill="#000000" font-size="5px" font-weight="bold" font-family="'Helvetica Neue', Helvetica, Arial-Unicode, Arial, Sans-serif">Created by Gregor Črešnar</text><text x="0" y="120" fill="#000000" font-size="5px" font-weight="bold" font-family="'Helvetica Neue', Helvetica, Arial-Unicode, Arial, Sans-serif">from the Noun Project</text></svg>