<svg xmlns="http://www.w3.org/2000/svg" xmlns:sketch="http://www.bohemiancoding.com/sketch/ns" viewBox="0 0 24 30" x="0px" y="0px"><title>related</title><desc>Created with Sketch.</desc><path d="M18.364 6.214l-2.543-2.569s-.639-.645-1.275-.645h-8.273s-1.273 0-1.273 1.286v15.429s0 1.286 1.273 1.286h11.455c1.273 0 1.273-1.286 1.273-1.286v-12.214c0-.643-.636-1.286-.636-1.286zm-2.545 12.214h-7.636s-.636 0-.636-.643.636-.643.636-.643h7.636s.636 0 .636.643-.636.643-.636.643zm0-2.571h-7.636s-.636 0-.636-.643.636-.643.636-.643h7.636s.636 0 .636.643-.636.643-.636.643zm0-2.571h-7.636s-.636 0-.636-.643.636-.643.636-.643h7.636s.636 0 .636.643-.636.643-.636.643zm1.909-3.857h-5.091v-5.143s0-.643.636-.643.636.643.636.643v3.857h3.818s.636 0 .636.643-.636.643-.636.643z" sketch:type="MSShapeGroup" fill="#000"/><text x="0" y="39" fill="#000000" font-size="5px" font-weight="bold" font-family="'Helvetica Neue', Helvetica, Arial-Unicode, Arial, Sans-serif">Created by Asif Shirazi</text><text x="0" y="44" fill="#000000" font-size="5px" font-weight="bold" font-family="'Helvetica Neue', Helvetica, Arial-Unicode, Arial, Sans-serif">from the Noun Project</text></svg>