<svg xmlns="http://www.w3.org/2000/svg" xmlns:xlink="http://www.w3.org/1999/xlink" xmlns:sketch="http://www.bohemiancoding.com/sketch/ns" viewBox="0 0 100 125" version="1.1" x="0px" y="0px"><title>kden-document-document</title><desc>Created with Sketch.</desc><g stroke="none" stroke-width="1" fill="none" fill-rule="evenodd" sketch:type="MSPage"><g sketch:type="MSArtboardGroup" fill="#000000"><path d="M58.9926339,32 C57.3389342,32 56,30.6601521 56,29.0073661 L56,4 L19.6656805,4 C17.6411811,4 16,5.63894638 16,7.66768662 L16,90.3323134 C16,92.3579208 17.6472148,94 19.6800858,94 L80.3199142,94 C82.3523695,94 84,92.3473338 84,90.3223331 L84,32 L58.9926339,32 Z M30,48 L64,48 L64,52 L30,52 L30,48 L30,48 Z M40,28 L40,32 L30,32 L30,28 L40,28 Z M30,58 L70,58 L70,62 L30,62 L30,58 L30,58 Z M30,68 L52,68 L52,72 L30,72 L30,68 L30,68 Z M84,28 L62.0049466,28 C60.8976452,28 60,27.1029738 60,25.9950534 L60,4 L84,28 L84,28 Z" sketch:type="MSShapeGroup"/></g></g><text x="0" y="115" fill="#000000" font-size="5px" font-weight="bold" font-family="'Helvetica Neue', Helvetica, Arial-Unicode, Arial, Sans-serif">Created by Denis Klyuchnikov</text><text x="0" y="120" fill="#000000" font-size="5px" font-weight="bold" font-family="'Helvetica Neue', Helvetica, Arial-Unicode, Arial, Sans-serif">from the Noun Project</text></svg>