<svg xmlns="http://www.w3.org/2000/svg" xmlns:xlink="http://www.w3.org/1999/xlink" version="1.1" x="0px" y="0px" viewBox="0 0 100 125" style="enable-background:new 0 0 100 100;" xml:space="preserve"><path d="M95.6,25.6c0,0-3.1-14.8-16.5-20C72.8,3.1,61.3,2,50,1.9C38.7,2,27.2,3.1,20.9,5.5c-13.4,5.2-16.5,20-16.5,20  c-2,8.4-2.7,16.9-2.6,24.4c-0.1,7.5,0.5,16.1,2.6,24.4c0,0,3.1,14.8,16.5,20c6.3,2.4,17.8,3.6,29.1,3.7c11.3-0.1,22.8-1.2,29.1-3.7  c13.4-5.2,16.5-20,16.5-20c2-8.4,2.7-16.9,2.6-24.4C98.3,42.5,97.7,33.9,95.6,25.6z M50.8,68.4H29v-6.5h21.7V68.4z M69.5,52.9H29  v-6.5h40.5V52.9z M69.5,38H29v-6.5h40.5V38z"/><text x="0" y="115" fill="#000000" font-size="5px" font-weight="bold" font-family="'Helvetica Neue', Helvetica, Arial-Unicode, Arial, Sans-serif">Created by Aneeque Ahmed</text><text x="0" y="120" fill="#000000" font-size="5px" font-weight="bold" font-family="'Helvetica Neue', Helvetica, Arial-Unicode, Arial, Sans-serif">from the Noun Project</text></svg>